<?xml version="1.0" encoding="UTF-8" standalone="no"?>
<!-- Created with Inkscape (http://www.inkscape.org/) -->

<svg
   version="1.1"
   id="svg2"
   width="3779.8401"
   height="3779.8401"
   viewBox="0 0 3779.8401 3779.8401"
   sodipodi:docname="vecteezy_cattails-silhouette-vector-logo-template_33093852-0.eps"
   xmlns:inkscape="http://www.inkscape.org/namespaces/inkscape"
   xmlns:sodipodi="http://sodipodi.sourceforge.net/DTD/sodipodi-0.dtd"
   xmlns="http://www.w3.org/2000/svg"
   xmlns:svg="http://www.w3.org/2000/svg">
  <defs
     id="defs6" />
  <sodipodi:namedview
     id="namedview4"
     pagecolor="#ffffff"
     bordercolor="#000000"
     borderopacity="0.25"
     inkscape:showpageshadow="2"
     inkscape:pageopacity="0.0"
     inkscape:pagecheckerboard="0"
     inkscape:deskcolor="#d1d1d1" />
  <g
     id="g8"
     inkscape:groupmode="layer"
     inkscape:label="ink_ext_XXXXXX"
     transform="matrix(1.3333333,0,0,-1.3333333,0,3779.84)">
    <g
       id="g10"
       transform="scale(0.1)">
      <path
         d="m 10148.8,6517.78 c -4,1781.3 -191.83,3302.69 -524.04,4633.42 -440.85,1765.8 -1127.51,3188.3 -1958.04,4418.8 942.12,-1174.6 1751.43,-2557.1 2344.28,-4305.3 197.3,-581.8 369.6,-1203 514,-1869.57 117.6,774.57 289.9,1568.97 506,2357.67 -106.1,348.9 -222.1,683.8 -347.2,1006 -143.6,7.1 -247.9,181.1 -280.7,240.2 -188.1,339.1 -447.99,809.4 -636.08,1148.5 -41.54,74.9 -155.34,363.4 18.72,484.4 -188.49,326 -387,637.9 -594.01,938.1 227.7,-289.8 447.4,-592 657.81,-909 159.06,40.6 323.76,-128.3 370.96,-213.4 188.1,-339.1 448.3,-837.2 636.4,-1176.3 39.5,-71.3 170.3,-289.5 10,-433.4 98.8,-213.9 193.8,-433.8 284.8,-660.3 93.1,316.2 193,630.8 298.9,942 203,596.7 427.3,1180.8 667.6,1740.4 -172.3,824.8 -362.3,1646.2 -566.1,2444.9 -312.3,4 -405.5,370.3 -439.9,489 -168.8,581.8 -434.4,1418.7 -603.2,2000.6 -39.8,137.4 -47.3,471.9 135.4,620.5 -321,957.9 -657.71,1823.4 -1000.14,2547.1 375.04,-704.8 750.84,-1550.2 1115.44,-2487.9 340.1,86.4 543.2,-375.9 581.4,-507.6 168.7,-581.8 403.8,-1387.8 572.5,-1969.6 32.1,-110.8 122.1,-466.5 -89.9,-617.7 193.9,-633.7 379.6,-1282.4 554.5,-1936.4 704.4,1519.1 1518,2810.7 2316.8,3608.1 -794.7,-893.6 -1574.4,-2347.3 -2205.6,-4029.6 10.8,-41.8 21.6,-83.7 32.4,-125.5 185.5,-721 357,-1444.7 511.4,-2158.3 212.8,997.9 450.6,2000.5 704.3,2958.9 692.1,2614.6 1499.1,4895.3 2233.9,5840.9 -681.5,-976.8 -1366.8,-3283.1 -1920.5,-5915.3 -289.9,-1377.7 -543.3,-2843.9 -740.6,-4253.5 134.7,-715.9 249,-1412.13 339.5,-2074.76 261.8,1827.36 871,3659.96 1710.5,5353.66 587.8,1185.9 1286.4,2303 2052.5,3300.2 -152.8,265.1 105.1,533.7 186.9,624.8 404.9,450.7 975.2,1118.4 1380,1569.1 103.8,115.5 424.6,321.1 653.8,187.5 345.1,298.5 694.8,569.8 1046.2,810.5 -335.3,-254 -667.6,-537.9 -994.2,-848.3 0.5,-0.4 0.9,-0.8 1.3,-1.1 257.3,-242.8 -29.5,-661.8 -121.3,-764.1 -404.9,-450.7 -965,-1076 -1369.9,-1526.7 -83.6,-93 -375.3,-395.6 -631.8,-217 -696.6,-1007.4 -1322.6,-2125.5 -1838.6,-3305 -905.7,-2070.1 -1471.5,-4328.1 -1473.9,-6500.57 216.8,1248.68 645.8,2417.67 1188.1,3459.67 256.6,493.1 537.7,957.3 832.1,1387.3 -42.9,166.7 94.6,334.8 142.8,397.6 278.6,363.1 669,899.5 947.6,1262.6 67.3,87.7 275.2,247.1 450,192 333.3,326.6 659.8,602.5 964.9,821 -284.1,-232.4 -585.6,-521.4 -890.9,-859.9 207.8,-167.8 16.4,-500 -46.8,-582.4 -278.6,-363.1 -663.9,-867 -942.5,-1230.1 -58,-75.6 -263.2,-324.5 -468.7,-197 -245.2,-418.6 -476.4,-865.9 -684.4,-1337.2 -620,-1404.38 -1031.1,-3020.96 -984.2,-4721.53 194.3,-40.72 382.6,-92.5 563.8,-158.28 345.7,-125.45 699.9,-408.28 990.9,-623.2 158.9,-117.34 346.4,-270.58 431.9,-399.37 H 7675.91 c 74.65,253.73 362.17,626.21 657.51,768.04 449.45,215.84 1070.9,179.3 1614.21,313.87 68.47,16.95 135.37,32.89 201.17,47.85 z m 1170.4,4141.92 c -230.7,-1404.6 -308.1,-2782.39 -168.4,-3980.18 194.1,17.67 396.1,28.44 616.2,33.48 -29.4,1484.84 -186.9,2787.19 -447.8,3946.7 z m 913.1,3639.7 c -142.8,-423.5 -275.8,-857.8 -396.9,-1298.1 -147.8,-537.2 -277.9,-1083.2 -386.6,-1629.1 13.5,-40.2 27,-80.7 40.3,-121.3 316.7,-965.4 564.3,-2038.84 728.7,-3247.09 123.6,1004.24 303.9,2130.79 525.6,3297.49 -136.9,973.3 -309.8,1984.7 -511.1,2998.1 z m 859.3,-7584.36 c 11.4,645.12 -15.9,1370.58 -76.8,2151.02 -73.3,-781.04 -121.4,-1508.27 -139.8,-2149.16 72.6,-0.36 144.8,-0.94 216.6,-1.86"
         style="fill:#070504;fill-opacity:1;fill-rule:evenodd;stroke:none"
         id="path12" />
    </g>
  </g>
</svg>
